<?xml version="1.0" encoding="UTF-8" standalone="no"?><!DOCTYPE svg PUBLIC "-//W3C//DTD SVG 1.1//EN" "http://www.w3.org/Graphics/SVG/1.1/DTD/svg11.dtd"><svg width="100%" height="100%" viewBox="0 0 38 38" version="1.1" xmlns="http://www.w3.org/2000/svg" xmlns:xlink="http://www.w3.org/1999/xlink" xml:space="preserve" xmlns:serif="http://www.serif.com/" style="fill-rule:evenodd;clip-rule:evenodd;stroke-linecap:round;stroke-linejoin:round;"><rect id="icon-chat--sm--colour" x="0" y="0" width="37.5" height="37.5" style="fill:none;"/><g id="icon-chat--sm--colour1" serif:id="icon-chat--sm--colour"><path d="M33.046,24.661c0,0 0.183,3.669 -0.263,4.981c-0.446,1.312 -10.116,0.955 -12.324,1.034c-3.496,0.127 -7.299,4.232 -9.615,4.102c-2.031,-0.113 -0.171,-3.985 -3.123,-4.102c-1.06,-0.041 -3.508,-1.853 -3.327,-3.129c0.182,-1.276 1.313,-1.379 2.079,-1.098c1.241,0.455 3.082,0.654 3.872,0.727c3.482,0.319 13.27,-0.098 15.781,-0.271c3.739,-0.257 5.401,-3.168 6.92,-2.244Z" style="fill:#feef7c;"/><path d="M4.92,6.968c-0.024,0.877 -1.977,3.196 2.399,2.943c1.313,-0.076 6.314,-0.598 10.871,-1.215c7.585,-1.026 11.965,-0.755 13.728,0.176c0.965,0.509 0.209,1.844 1.06,-1.485c0.202,-0.79 -0.332,-1.144 -1.008,-1.745c-1.145,-1.019 -7.175,-1.017 -8.65,-1.124c-2.402,-0.174 -5.928,-0.128 -7.503,-0.111c-1.576,0.016 -10.849,0.791 -10.897,2.561Z" style="fill:#5cd3cb;"/><path d="M31.15,28.436l-12.95,0l-7.4,5.7l0,-5.7l-3.7,0c-1.021,0 -1.85,-0.851 -1.85,-1.9l0,-17.859c0,-1.049 0.829,-1.9 1.85,-1.9l24.05,0c1.021,0 1.85,0.851 1.85,1.9l0,17.859c0,1.049 -0.829,1.9 -1.85,1.9Z" style="fill:none;fill-rule:nonzero;stroke:#000;stroke-width:1.5px;"/><path d="M23.974,11.183c1.499,0 2.714,1.215 2.714,2.714c0,1.499 -1.215,2.713 -2.714,2.713c-1.499,0 -2.713,-1.214 -2.713,-2.713c0,-1.499 1.214,-2.714 2.713,-2.714Z" style="fill:none;fill-rule:nonzero;stroke:#000;stroke-width:1.5px;"/><path d="M28.674,20.228c-1.499,-2.595 -4.819,-3.484 -7.414,-1.984c-0.824,0.477 -1.509,1.161 -1.984,1.984" style="fill:none;fill-rule:nonzero;stroke:#000;stroke-width:1.5px;"/><path d="M13.849,11.183c1.749,0 3.166,1.417 3.166,3.166c0,1.749 -1.417,3.166 -3.166,3.166c-1.749,0 -3.166,-1.417 -3.166,-3.166c0,-1.749 1.417,-3.166 3.166,-3.166Z" style="fill:none;fill-rule:nonzero;stroke:#000;stroke-width:1.5px;"/><path d="M8.422,23.846c0,-2.997 2.43,-5.427 5.427,-5.427c2.997,0 5.427,2.43 5.427,5.427" style="fill:none;fill-rule:nonzero;stroke:#000;stroke-width:1.5px;"/></g></svg>